<svg xmlns="http://www.w3.org/2000/svg" width="841.89" height="595.28"><path fill="#FFF" d="M363.945 203.409v-61.646c-35.56 11.05-69.401 17.446-103.813 22.102v16.281c26.384 6.4 30.971 8.726 30.971 38.383v126.784c0 36.057-5.735 38.966-36.708 42.453v18.611h157.156v-18.611c-44.165-4.07-47.606-6.396-47.606-42.453V237.14c9.749-22.681 21.222-30.243 32.12-30.243 9.749 0 16.629 4.074 26.383 12.214 4.012 3.491 9.749 5.236 17.78 2.33 15.482-5.817 28.102-22.102 28.102-43.039 0-19.776-15.487-36.057-38.426-36.057-21.222 0-43.593 25.007-64.238 61.064h-1.721z"/><path fill="#009FE3" d="M561.238 105.706c22.941 0 41.296-18.61 41.296-40.712 0-23.264-18.354-40.709-40.723-40.709-21.797 0-40.723 17.446-40.723 40.709.001 22.102 18.927 40.712 40.15 40.712"/><path fill="#FFF" d="M494.134 180.728c31.543 5.232 35.56 6.4 35.56 48.271v109.335c0 37.801-1.148 75.025-2.296 109.335-1.145 20.354-3.441 34.312-6.882 41.291-4.017 6.979-17.778 11.049-43.019 11.633-8.026 0-13.764 6.396-13.764 15.7 0 18.611 14.915 31.987 22.941 31.987 6.888 0 11.473-2.326 20.075-8.723 13.766-9.888 57.356-58.741 79.725-113.988 11.47-26.754 16.06-49.435 16.06-94.215V142.345c-36.132 8.723-73.413 16.864-108.4 20.937v17.446z"/></svg>